<svg version="1.1" xmlns="http://www.w3.org/2000/svg" width="82px" height="82px" viewBox="0 0 82 82"  preserveAspectRatio="xMinYMin meet"><rect width="100%" height="100%" fill="white" cx="0" cy="0"/><path d="M8,8l2,0 0,2 -2,0 0,-2z M10,8l2,0 0,2 -2,0 0,-2z M12,8l2,0 0,2 -2,0 0,-2z M14,8l2,0 0,2 -2,0 0,-2z M16,8l2,0 0,2 -2,0 0,-2z M18,8l2,0 0,2 -2,0 0,-2z M20,8l2,0 0,2 -2,0 0,-2z M24,8l2,0 0,2 -2,0 0,-2z M26,8l2,0 0,2 -2,0 0,-2z M28,8l2,0 0,2 -2,0 0,-2z M32,8l2,0 0,2 -2,0 0,-2z M42,8l2,0 0,2 -2,0 0,-2z M46,8l2,0 0,2 -2,0 0,-2z M48,8l2,0 0,2 -2,0 0,-2z M50,8l2,0 0,2 -2,0 0,-2z M52,8l2,0 0,2 -2,0 0,-2z M56,8l2,0 0,2 -2,0 0,-2z M60,8l2,0 0,2 -2,0 0,-2z M62,8l2,0 0,2 -2,0 0,-2z M64,8l2,0 0,2 -2,0 0,-2z M66,8l2,0 0,2 -2,0 0,-2z M68,8l2,0 0,2 -2,0 0,-2z M70,8l2,0 0,2 -2,0 0,-2z M72,8l2,0 0,2 -2,0 0,-2z M8,10l2,0 0,2 -2,0 0,-2z M20,10l2,0 0,2 -2,0 0,-2z M24,10l2,0 0,2 -2,0 0,-2z M26,10l2,0 0,2 -2,0 0,-2z M28,10l2,0 0,2 -2,0 0,-2z M40,10l2,0 0,2 -2,0 0,-2z M42,10l2,0 0,2 -2,0 0,-2z M46,10l2,0 0,2 -2,0 0,-2z M50,10l2,0 0,2 -2,0 0,-2z M52,10l2,0 0,2 -2,0 0,-2z M60,10l2,0 0,2 -2,0 0,-2z M72,10l2,0 0,2 -2,0 0,-2z M8,12l2,0 0,2 -2,0 0,-2z M12,12l2,0 0,2 -2,0 0,-2z M14,12l2,0 0,2 -2,0 0,-2z M16,12l2,0 0,2 -2,0 0,-2z M20,12l2,0 0,2 -2,0 0,-2z M24,12l2,0 0,2 -2,0 0,-2z M28,12l2,0 0,2 -2,0 0,-2z M30,12l2,0 0,2 -2,0 0,-2z M34,12l2,0 0,2 -2,0 0,-2z M38,12l2,0 0,2 -2,0 0,-2z M40,12l2,0 0,2 -2,0 0,-2z M52,12l2,0 0,2 -2,0 0,-2z M54,12l2,0 0,2 -2,0 0,-2z M60,12l2,0 0,2 -2,0 0,-2z M64,12l2,0 0,2 -2,0 0,-2z M66,12l2,0 0,2 -2,0 0,-2z M68,12l2,0 0,2 -2,0 0,-2z M72,12l2,0 0,2 -2,0 0,-2z M8,14l2,0 0,2 -2,0 0,-2z M12,14l2,0 0,2 -2,0 0,-2z M14,14l2,0 0,2 -2,0 0,-2z M16,14l2,0 0,2 -2,0 0,-2z M20,14l2,0 0,2 -2,0 0,-2z M24,14l2,0 0,2 -2,0 0,-2z M26,14l2,0 0,2 -2,0 0,-2z M30,14l2,0 0,2 -2,0 0,-2z M36,14l2,0 0,2 -2,0 0,-2z M38,14l2,0 0,2 -2,0 0,-2z M40,14l2,0 0,2 -2,0 0,-2z M42,14l2,0 0,2 -2,0 0,-2z M44,14l2,0 0,2 -2,0 0,-2z M50,14l2,0 0,2 -2,0 0,-2z M54,14l2,0 0,2 -2,0 0,-2z M60,14l2,0 0,2 -2,0 0,-2z M64,14l2,0 0,2 -2,0 0,-2z M66,14l2,0 0,2 -2,0 0,-2z M68,14l2,0 0,2 -2,0 0,-2z M72,14l2,0 0,2 -2,0 0,-2z M8,16l2,0 0,2 -2,0 0,-2z M12,16l2,0 0,2 -2,0 0,-2z M14,16l2,0 0,2 -2,0 0,-2z M16,16l2,0 0,2 -2,0 0,-2z M20,16l2,0 0,2 -2,0 0,-2z M34,16l2,0 0,2 -2,0 0,-2z M36,16l2,0 0,2 -2,0 0,-2z M40,16l2,0 0,2 -2,0 0,-2z M44,16l2,0 0,2 -2,0 0,-2z M46,16l2,0 0,2 -2,0 0,-2z M60,16l2,0 0,2 -2,0 0,-2z M64,16l2,0 0,2 -2,0 0,-2z M66,16l2,0 0,2 -2,0 0,-2z M68,16l2,0 0,2 -2,0 0,-2z M72,16l2,0 0,2 -2,0 0,-2z M8,18l2,0 0,2 -2,0 0,-2z M20,18l2,0 0,2 -2,0 0,-2z M24,18l2,0 0,2 -2,0 0,-2z M30,18l2,0 0,2 -2,0 0,-2z M32,18l2,0 0,2 -2,0 0,-2z M34,18l2,0 0,2 -2,0 0,-2z M36,18l2,0 0,2 -2,0 0,-2z M38,18l2,0 0,2 -2,0 0,-2z M44,18l2,0 0,2 -2,0 0,-2z M48,18l2,0 0,2 -2,0 0,-2z M54,18l2,0 0,2 -2,0 0,-2z M56,18l2,0 0,2 -2,0 0,-2z M60,18l2,0 0,2 -2,0 0,-2z M72,18l2,0 0,2 -2,0 0,-2z M8,20l2,0 0,2 -2,0 0,-2z M10,20l2,0 0,2 -2,0 0,-2z M12,20l2,0 0,2 -2,0 0,-2z M14,20l2,0 0,2 -2,0 0,-2z M16,20l2,0 0,2 -2,0 0,-2z M18,20l2,0 0,2 -2,0 0,-2z M20,20l2,0 0,2 -2,0 0,-2z M24,20l2,0 0,2 -2,0 0,-2z M28,20l2,0 0,2 -2,0 0,-2z M32,20l2,0 0,2 -2,0 0,-2z M36,20l2,0 0,2 -2,0 0,-2z M40,20l2,0 0,2 -2,0 0,-2z M44,20l2,0 0,2 -2,0 0,-2z M48,20l2,0 0,2 -2,0 0,-2z M52,20l2,0 0,2 -2,0 0,-2z M56,20l2,0 0,2 -2,0 0,-2z M60,20l2,0 0,2 -2,0 0,-2z M62,20l2,0 0,2 -2,0 0,-2z M64,20l2,0 0,2 -2,0 0,-2z M66,20l2,0 0,2 -2,0 0,-2z M68,20l2,0 0,2 -2,0 0,-2z M70,20l2,0 0,2 -2,0 0,-2z M72,20l2,0 0,2 -2,0 0,-2z M26,22l2,0 0,2 -2,0 0,-2z M32,22l2,0 0,2 -2,0 0,-2z M36,22l2,0 0,2 -2,0 0,-2z M42,22l2,0 0,2 -2,0 0,-2z M44,22l2,0 0,2 -2,0 0,-2z M46,22l2,0 0,2 -2,0 0,-2z M48,22l2,0 0,2 -2,0 0,-2z M50,22l2,0 0,2 -2,0 0,-2z M56,22l2,0 0,2 -2,0 0,-2z M8,24l2,0 0,2 -2,0 0,-2z M10,24l2,0 0,2 -2,0 0,-2z M16,24l2,0 0,2 -2,0 0,-2z M18,24l2,0 0,2 -2,0 0,-2z M20,24l2,0 0,2 -2,0 0,-2z M30,24l2,0 0,2 -2,0 0,-2z M34,24l2,0 0,2 -2,0 0,-2z M36,24l2,0 0,2 -2,0 0,-2z M38,24l2,0 0,2 -2,0 0,-2z M40,24l2,0 0,2 -2,0 0,-2z M44,24l2,0 0,2 -2,0 0,-2z M54,24l2,0 0,2 -2,0 0,-2z M62,24l2,0 0,2 -2,0 0,-2z M66,24l2,0 0,2 -2,0 0,-2z M68,24l2,0 0,2 -2,0 0,-2z M70,24l2,0 0,2 -2,0 0,-2z M72,24l2,0 0,2 -2,0 0,-2z M10,26l2,0 0,2 -2,0 0,-2z M16,26l2,0 0,2 -2,0 0,-2z M18,26l2,0 0,2 -2,0 0,-2z M24,26l2,0 0,2 -2,0 0,-2z M26,26l2,0 0,2 -2,0 0,-2z M28,26l2,0 0,2 -2,0 0,-2z M32,26l2,0 0,2 -2,0 0,-2z M42,26l2,0 0,2 -2,0 0,-2z M46,26l2,0 0,2 -2,0 0,-2z M48,26l2,0 0,2 -2,0 0,-2z M50,26l2,0 0,2 -2,0 0,-2z M52,26l2,0 0,2 -2,0 0,-2z M56,26l2,0 0,2 -2,0 0,-2z M60,26l2,0 0,2 -2,0 0,-2z M68,26l2,0 0,2 -2,0 0,-2z M70,26l2,0 0,2 -2,0 0,-2z M72,26l2,0 0,2 -2,0 0,-2z M8,28l2,0 0,2 -2,0 0,-2z M12,28l2,0 0,2 -2,0 0,-2z M14,28l2,0 0,2 -2,0 0,-2z M16,28l2,0 0,2 -2,0 0,-2z M18,28l2,0 0,2 -2,0 0,-2z M20,28l2,0 0,2 -2,0 0,-2z M22,28l2,0 0,2 -2,0 0,-2z M24,28l2,0 0,2 -2,0 0,-2z M30,28l2,0 0,2 -2,0 0,-2z M32,28l2,0 0,2 -2,0 0,-2z M34,28l2,0 0,2 -2,0 0,-2z M36,28l2,0 0,2 -2,0 0,-2z M38,28l2,0 0,2 -2,0 0,-2z M44,28l2,0 0,2 -2,0 0,-2z M48,28l2,0 0,2 -2,0 0,-2z M54,28l2,0 0,2 -2,0 0,-2z M56,28l2,0 0,2 -2,0 0,-2z M58,28l2,0 0,2 -2,0 0,-2z M60,28l2,0 0,2 -2,0 0,-2z M64,28l2,0 0,2 -2,0 0,-2z M70,28l2,0 0,2 -2,0 0,-2z M72,28l2,0 0,2 -2,0 0,-2z M8,30l2,0 0,2 -2,0 0,-2z M12,30l2,0 0,2 -2,0 0,-2z M14,30l2,0 0,2 -2,0 0,-2z M24,30l2,0 0,2 -2,0 0,-2z M28,30l2,0 0,2 -2,0 0,-2z M30,30l2,0 0,2 -2,0 0,-2z M34,30l2,0 0,2 -2,0 0,-2z M38,30l2,0 0,2 -2,0 0,-2z M40,30l2,0 0,2 -2,0 0,-2z M52,30l2,0 0,2 -2,0 0,-2z M54,30l2,0 0,2 -2,0 0,-2z M60,30l2,0 0,2 -2,0 0,-2z M62,30l2,0 0,2 -2,0 0,-2z M64,30l2,0 0,2 -2,0 0,-2z M66,30l2,0 0,2 -2,0 0,-2z M72,30l2,0 0,2 -2,0 0,-2z M8,32l2,0 0,2 -2,0 0,-2z M14,32l2,0 0,2 -2,0 0,-2z M16,32l2,0 0,2 -2,0 0,-2z M20,32l2,0 0,2 -2,0 0,-2z M22,32l2,0 0,2 -2,0 0,-2z M28,32l2,0 0,2 -2,0 0,-2z M32,32l2,0 0,2 -2,0 0,-2z M34,32l2,0 0,2 -2,0 0,-2z M46,32l2,0 0,2 -2,0 0,-2z M48,32l2,0 0,2 -2,0 0,-2z M52,32l2,0 0,2 -2,0 0,-2z M56,32l2,0 0,2 -2,0 0,-2z M66,32l2,0 0,2 -2,0 0,-2z M68,32l2,0 0,2 -2,0 0,-2z M8,34l2,0 0,2 -2,0 0,-2z M14,34l2,0 0,2 -2,0 0,-2z M16,34l2,0 0,2 -2,0 0,-2z M24,34l2,0 0,2 -2,0 0,-2z M34,34l2,0 0,2 -2,0 0,-2z M36,34l2,0 0,2 -2,0 0,-2z M40,34l2,0 0,2 -2,0 0,-2z M44,34l2,0 0,2 -2,0 0,-2z M46,34l2,0 0,2 -2,0 0,-2z M58,34l2,0 0,2 -2,0 0,-2z M60,34l2,0 0,2 -2,0 0,-2z M62,34l2,0 0,2 -2,0 0,-2z M64,34l2,0 0,2 -2,0 0,-2z M66,34l2,0 0,2 -2,0 0,-2z M70,34l2,0 0,2 -2,0 0,-2z M72,34l2,0 0,2 -2,0 0,-2z M16,36l2,0 0,2 -2,0 0,-2z M18,36l2,0 0,2 -2,0 0,-2z M20,36l2,0 0,2 -2,0 0,-2z M22,36l2,0 0,2 -2,0 0,-2z M28,36l2,0 0,2 -2,0 0,-2z M40,36l2,0 0,2 -2,0 0,-2z M42,36l2,0 0,2 -2,0 0,-2z M46,36l2,0 0,2 -2,0 0,-2z M50,36l2,0 0,2 -2,0 0,-2z M52,36l2,0 0,2 -2,0 0,-2z M62,36l2,0 0,2 -2,0 0,-2z M66,36l2,0 0,2 -2,0 0,-2z M68,36l2,0 0,2 -2,0 0,-2z M8,38l2,0 0,2 -2,0 0,-2z M14,38l2,0 0,2 -2,0 0,-2z M16,38l2,0 0,2 -2,0 0,-2z M26,38l2,0 0,2 -2,0 0,-2z M32,38l2,0 0,2 -2,0 0,-2z M36,38l2,0 0,2 -2,0 0,-2z M42,38l2,0 0,2 -2,0 0,-2z M44,38l2,0 0,2 -2,0 0,-2z M46,38l2,0 0,2 -2,0 0,-2z M48,38l2,0 0,2 -2,0 0,-2z M50,38l2,0 0,2 -2,0 0,-2z M56,38l2,0 0,2 -2,0 0,-2z M58,38l2,0 0,2 -2,0 0,-2z M68,38l2,0 0,2 -2,0 0,-2z M70,38l2,0 0,2 -2,0 0,-2z M8,40l2,0 0,2 -2,0 0,-2z M20,40l2,0 0,2 -2,0 0,-2z M24,40l2,0 0,2 -2,0 0,-2z M30,40l2,0 0,2 -2,0 0,-2z M34,40l2,0 0,2 -2,0 0,-2z M36,40l2,0 0,2 -2,0 0,-2z M38,40l2,0 0,2 -2,0 0,-2z M40,40l2,0 0,2 -2,0 0,-2z M44,40l2,0 0,2 -2,0 0,-2z M54,40l2,0 0,2 -2,0 0,-2z M58,40l2,0 0,2 -2,0 0,-2z M60,40l2,0 0,2 -2,0 0,-2z M62,40l2,0 0,2 -2,0 0,-2z M68,40l2,0 0,2 -2,0 0,-2z M70,40l2,0 0,2 -2,0 0,-2z M72,40l2,0 0,2 -2,0 0,-2z M10,42l2,0 0,2 -2,0 0,-2z M12,42l2,0 0,2 -2,0 0,-2z M14,42l2,0 0,2 -2,0 0,-2z M18,42l2,0 0,2 -2,0 0,-2z M22,42l2,0 0,2 -2,0 0,-2z M32,42l2,0 0,2 -2,0 0,-2z M42,42l2,0 0,2 -2,0 0,-2z M46,42l2,0 0,2 -2,0 0,-2z M48,42l2,0 0,2 -2,0 0,-2z M50,42l2,0 0,2 -2,0 0,-2z M52,42l2,0 0,2 -2,0 0,-2z M56,42l2,0 0,2 -2,0 0,-2z M60,42l2,0 0,2 -2,0 0,-2z M68,42l2,0 0,2 -2,0 0,-2z M70,42l2,0 0,2 -2,0 0,-2z M10,44l2,0 0,2 -2,0 0,-2z M16,44l2,0 0,2 -2,0 0,-2z M18,44l2,0 0,2 -2,0 0,-2z M20,44l2,0 0,2 -2,0 0,-2z M22,44l2,0 0,2 -2,0 0,-2z M26,44l2,0 0,2 -2,0 0,-2z M28,44l2,0 0,2 -2,0 0,-2z M30,44l2,0 0,2 -2,0 0,-2z M32,44l2,0 0,2 -2,0 0,-2z M34,44l2,0 0,2 -2,0 0,-2z M36,44l2,0 0,2 -2,0 0,-2z M38,44l2,0 0,2 -2,0 0,-2z M44,44l2,0 0,2 -2,0 0,-2z M48,44l2,0 0,2 -2,0 0,-2z M54,44l2,0 0,2 -2,0 0,-2z M56,44l2,0 0,2 -2,0 0,-2z M58,44l2,0 0,2 -2,0 0,-2z M60,44l2,0 0,2 -2,0 0,-2z M64,44l2,0 0,2 -2,0 0,-2z M10,46l2,0 0,2 -2,0 0,-2z M12,46l2,0 0,2 -2,0 0,-2z M16,46l2,0 0,2 -2,0 0,-2z M18,46l2,0 0,2 -2,0 0,-2z M24,46l2,0 0,2 -2,0 0,-2z M26,46l2,0 0,2 -2,0 0,-2z M30,46l2,0 0,2 -2,0 0,-2z M34,46l2,0 0,2 -2,0 0,-2z M38,46l2,0 0,2 -2,0 0,-2z M40,46l2,0 0,2 -2,0 0,-2z M52,46l2,0 0,2 -2,0 0,-2z M54,46l2,0 0,2 -2,0 0,-2z M60,46l2,0 0,2 -2,0 0,-2z M62,46l2,0 0,2 -2,0 0,-2z M64,46l2,0 0,2 -2,0 0,-2z M66,46l2,0 0,2 -2,0 0,-2z M70,46l2,0 0,2 -2,0 0,-2z M16,48l2,0 0,2 -2,0 0,-2z M18,48l2,0 0,2 -2,0 0,-2z M20,48l2,0 0,2 -2,0 0,-2z M26,48l2,0 0,2 -2,0 0,-2z M32,48l2,0 0,2 -2,0 0,-2z M34,48l2,0 0,2 -2,0 0,-2z M46,48l2,0 0,2 -2,0 0,-2z M48,48l2,0 0,2 -2,0 0,-2z M52,48l2,0 0,2 -2,0 0,-2z M56,48l2,0 0,2 -2,0 0,-2z M66,48l2,0 0,2 -2,0 0,-2z M68,48l2,0 0,2 -2,0 0,-2z M70,48l2,0 0,2 -2,0 0,-2z M8,50l2,0 0,2 -2,0 0,-2z M10,50l2,0 0,2 -2,0 0,-2z M14,50l2,0 0,2 -2,0 0,-2z M16,50l2,0 0,2 -2,0 0,-2z M22,50l2,0 0,2 -2,0 0,-2z M24,50l2,0 0,2 -2,0 0,-2z M34,50l2,0 0,2 -2,0 0,-2z M36,50l2,0 0,2 -2,0 0,-2z M40,50l2,0 0,2 -2,0 0,-2z M44,50l2,0 0,2 -2,0 0,-2z M46,50l2,0 0,2 -2,0 0,-2z M58,50l2,0 0,2 -2,0 0,-2z M60,50l2,0 0,2 -2,0 0,-2z M62,50l2,0 0,2 -2,0 0,-2z M64,50l2,0 0,2 -2,0 0,-2z M66,50l2,0 0,2 -2,0 0,-2z M70,50l2,0 0,2 -2,0 0,-2z M18,52l2,0 0,2 -2,0 0,-2z M20,52l2,0 0,2 -2,0 0,-2z M24,52l2,0 0,2 -2,0 0,-2z M40,52l2,0 0,2 -2,0 0,-2z M42,52l2,0 0,2 -2,0 0,-2z M46,52l2,0 0,2 -2,0 0,-2z M50,52l2,0 0,2 -2,0 0,-2z M52,52l2,0 0,2 -2,0 0,-2z M62,52l2,0 0,2 -2,0 0,-2z M66,52l2,0 0,2 -2,0 0,-2z M68,52l2,0 0,2 -2,0 0,-2z M70,52l2,0 0,2 -2,0 0,-2z M12,54l2,0 0,2 -2,0 0,-2z M16,54l2,0 0,2 -2,0 0,-2z M22,54l2,0 0,2 -2,0 0,-2z M24,54l2,0 0,2 -2,0 0,-2z M28,54l2,0 0,2 -2,0 0,-2z M32,54l2,0 0,2 -2,0 0,-2z M36,54l2,0 0,2 -2,0 0,-2z M42,54l2,0 0,2 -2,0 0,-2z M44,54l2,0 0,2 -2,0 0,-2z M46,54l2,0 0,2 -2,0 0,-2z M48,54l2,0 0,2 -2,0 0,-2z M50,54l2,0 0,2 -2,0 0,-2z M56,54l2,0 0,2 -2,0 0,-2z M58,54l2,0 0,2 -2,0 0,-2z M68,54l2,0 0,2 -2,0 0,-2z M8,56l2,0 0,2 -2,0 0,-2z M10,56l2,0 0,2 -2,0 0,-2z M16,56l2,0 0,2 -2,0 0,-2z M20,56l2,0 0,2 -2,0 0,-2z M22,56l2,0 0,2 -2,0 0,-2z M24,56l2,0 0,2 -2,0 0,-2z M28,56l2,0 0,2 -2,0 0,-2z M30,56l2,0 0,2 -2,0 0,-2z M34,56l2,0 0,2 -2,0 0,-2z M36,56l2,0 0,2 -2,0 0,-2z M38,56l2,0 0,2 -2,0 0,-2z M40,56l2,0 0,2 -2,0 0,-2z M44,56l2,0 0,2 -2,0 0,-2z M54,56l2,0 0,2 -2,0 0,-2z M56,56l2,0 0,2 -2,0 0,-2z M58,56l2,0 0,2 -2,0 0,-2z M60,56l2,0 0,2 -2,0 0,-2z M62,56l2,0 0,2 -2,0 0,-2z M64,56l2,0 0,2 -2,0 0,-2z M68,56l2,0 0,2 -2,0 0,-2z M70,56l2,0 0,2 -2,0 0,-2z M24,58l2,0 0,2 -2,0 0,-2z M32,58l2,0 0,2 -2,0 0,-2z M42,58l2,0 0,2 -2,0 0,-2z M46,58l2,0 0,2 -2,0 0,-2z M48,58l2,0 0,2 -2,0 0,-2z M50,58l2,0 0,2 -2,0 0,-2z M52,58l2,0 0,2 -2,0 0,-2z M54,58l2,0 0,2 -2,0 0,-2z M56,58l2,0 0,2 -2,0 0,-2z M64,58l2,0 0,2 -2,0 0,-2z M68,58l2,0 0,2 -2,0 0,-2z M70,58l2,0 0,2 -2,0 0,-2z M72,58l2,0 0,2 -2,0 0,-2z M8,60l2,0 0,2 -2,0 0,-2z M10,60l2,0 0,2 -2,0 0,-2z M12,60l2,0 0,2 -2,0 0,-2z M14,60l2,0 0,2 -2,0 0,-2z M16,60l2,0 0,2 -2,0 0,-2z M18,60l2,0 0,2 -2,0 0,-2z M20,60l2,0 0,2 -2,0 0,-2z M26,60l2,0 0,2 -2,0 0,-2z M30,60l2,0 0,2 -2,0 0,-2z M32,60l2,0 0,2 -2,0 0,-2z M34,60l2,0 0,2 -2,0 0,-2z M36,60l2,0 0,2 -2,0 0,-2z M38,60l2,0 0,2 -2,0 0,-2z M44,60l2,0 0,2 -2,0 0,-2z M48,60l2,0 0,2 -2,0 0,-2z M54,60l2,0 0,2 -2,0 0,-2z M56,60l2,0 0,2 -2,0 0,-2z M60,60l2,0 0,2 -2,0 0,-2z M64,60l2,0 0,2 -2,0 0,-2z M70,60l2,0 0,2 -2,0 0,-2z M8,62l2,0 0,2 -2,0 0,-2z M20,62l2,0 0,2 -2,0 0,-2z M24,62l2,0 0,2 -2,0 0,-2z M26,62l2,0 0,2 -2,0 0,-2z M30,62l2,0 0,2 -2,0 0,-2z M34,62l2,0 0,2 -2,0 0,-2z M38,62l2,0 0,2 -2,0 0,-2z M40,62l2,0 0,2 -2,0 0,-2z M52,62l2,0 0,2 -2,0 0,-2z M54,62l2,0 0,2 -2,0 0,-2z M56,62l2,0 0,2 -2,0 0,-2z M64,62l2,0 0,2 -2,0 0,-2z M66,62l2,0 0,2 -2,0 0,-2z M70,62l2,0 0,2 -2,0 0,-2z M72,62l2,0 0,2 -2,0 0,-2z M8,64l2,0 0,2 -2,0 0,-2z M12,64l2,0 0,2 -2,0 0,-2z M14,64l2,0 0,2 -2,0 0,-2z M16,64l2,0 0,2 -2,0 0,-2z M20,64l2,0 0,2 -2,0 0,-2z M24,64l2,0 0,2 -2,0 0,-2z M28,64l2,0 0,2 -2,0 0,-2z M32,64l2,0 0,2 -2,0 0,-2z M34,64l2,0 0,2 -2,0 0,-2z M46,64l2,0 0,2 -2,0 0,-2z M48,64l2,0 0,2 -2,0 0,-2z M52,64l2,0 0,2 -2,0 0,-2z M56,64l2,0 0,2 -2,0 0,-2z M58,64l2,0 0,2 -2,0 0,-2z M60,64l2,0 0,2 -2,0 0,-2z M62,64l2,0 0,2 -2,0 0,-2z M64,64l2,0 0,2 -2,0 0,-2z M66,64l2,0 0,2 -2,0 0,-2z M68,64l2,0 0,2 -2,0 0,-2z M70,64l2,0 0,2 -2,0 0,-2z M72,64l2,0 0,2 -2,0 0,-2z M8,66l2,0 0,2 -2,0 0,-2z M12,66l2,0 0,2 -2,0 0,-2z M14,66l2,0 0,2 -2,0 0,-2z M16,66l2,0 0,2 -2,0 0,-2z M20,66l2,0 0,2 -2,0 0,-2z M26,66l2,0 0,2 -2,0 0,-2z M28,66l2,0 0,2 -2,0 0,-2z M34,66l2,0 0,2 -2,0 0,-2z M36,66l2,0 0,2 -2,0 0,-2z M40,66l2,0 0,2 -2,0 0,-2z M44,66l2,0 0,2 -2,0 0,-2z M46,66l2,0 0,2 -2,0 0,-2z M54,66l2,0 0,2 -2,0 0,-2z M56,66l2,0 0,2 -2,0 0,-2z M58,66l2,0 0,2 -2,0 0,-2z M60,66l2,0 0,2 -2,0 0,-2z M62,66l2,0 0,2 -2,0 0,-2z M66,66l2,0 0,2 -2,0 0,-2z M70,66l2,0 0,2 -2,0 0,-2z M72,66l2,0 0,2 -2,0 0,-2z M8,68l2,0 0,2 -2,0 0,-2z M12,68l2,0 0,2 -2,0 0,-2z M14,68l2,0 0,2 -2,0 0,-2z M16,68l2,0 0,2 -2,0 0,-2z M20,68l2,0 0,2 -2,0 0,-2z M40,68l2,0 0,2 -2,0 0,-2z M42,68l2,0 0,2 -2,0 0,-2z M46,68l2,0 0,2 -2,0 0,-2z M50,68l2,0 0,2 -2,0 0,-2z M52,68l2,0 0,2 -2,0 0,-2z M54,68l2,0 0,2 -2,0 0,-2z M58,68l2,0 0,2 -2,0 0,-2z M62,68l2,0 0,2 -2,0 0,-2z M64,68l2,0 0,2 -2,0 0,-2z M66,68l2,0 0,2 -2,0 0,-2z M68,68l2,0 0,2 -2,0 0,-2z M8,70l2,0 0,2 -2,0 0,-2z M20,70l2,0 0,2 -2,0 0,-2z M24,70l2,0 0,2 -2,0 0,-2z M26,70l2,0 0,2 -2,0 0,-2z M28,70l2,0 0,2 -2,0 0,-2z M32,70l2,0 0,2 -2,0 0,-2z M36,70l2,0 0,2 -2,0 0,-2z M42,70l2,0 0,2 -2,0 0,-2z M44,70l2,0 0,2 -2,0 0,-2z M46,70l2,0 0,2 -2,0 0,-2z M48,70l2,0 0,2 -2,0 0,-2z M50,70l2,0 0,2 -2,0 0,-2z M54,70l2,0 0,2 -2,0 0,-2z M58,70l2,0 0,2 -2,0 0,-2z M60,70l2,0 0,2 -2,0 0,-2z M64,70l2,0 0,2 -2,0 0,-2z M68,70l2,0 0,2 -2,0 0,-2z M8,72l2,0 0,2 -2,0 0,-2z M10,72l2,0 0,2 -2,0 0,-2z M12,72l2,0 0,2 -2,0 0,-2z M14,72l2,0 0,2 -2,0 0,-2z M16,72l2,0 0,2 -2,0 0,-2z M18,72l2,0 0,2 -2,0 0,-2z M20,72l2,0 0,2 -2,0 0,-2z M24,72l2,0 0,2 -2,0 0,-2z M30,72l2,0 0,2 -2,0 0,-2z M34,72l2,0 0,2 -2,0 0,-2z M36,72l2,0 0,2 -2,0 0,-2z M38,72l2,0 0,2 -2,0 0,-2z M40,72l2,0 0,2 -2,0 0,-2z M44,72l2,0 0,2 -2,0 0,-2z M54,72l2,0 0,2 -2,0 0,-2z M58,72l2,0 0,2 -2,0 0,-2z M68,72l2,0 0,2 -2,0 0,-2z M72,72l2,0 0,2 -2,0 0,-2z " stroke="transparent" fill="black"/></svg>